<svg xmlns="http://www.w3.org/2000/svg" viewBox="0 -0.5 84 31" shape-rendering="crispEdges">
<metadata>Made with Pixels to Svg https://codepen.io/shshaw/pen/XbxvNj</metadata>
<path stroke="#7b7d7b" d="M10 1h1M13 1h1M37 2h1M40 2h1M65 2h1M68 2h1M14 3h1M13 4h2M16 4h1M41 4h1M69 4h1M11 5h3M16 5h1M36 5h1M40 5h2M43 5h1M68 5h2M71 5h1M10 6h3M15 6h2M36 6h1M39 6h2M43 6h1M64 6h1M68 6h1M71 6h1M14 7h2M37 7h3M42 7h2M65 7h3M70 7h2M5 8h1M41 8h2M69 8h2M32 9h1M60 9h1M15 12h1M11 13h1M42 13h1M70 13h1M38 14h1M66 14h1M12 15h2M39 16h2M67 16h2M6 19h1M24 19h2M61 19h1M80 19h2M3 20h1M25 20h1M33 20h1M52 20h2M58 20h1M81 20h1M4 21h1M30 21h1M53 21h1M59 21h1M31 22h1M7 25h2M18 25h1M34 25h2M47 25h1M61 25h2M75 25h1M8 27h1M16 27h1M35 27h1M45 27h1M62 27h1M73 27h1M8 28h1M18 28h1M20 28h1M35 28h1M47 28h1M49 28h1M62 28h1M75 28h1M77 28h1M7 29h1M18 29h1M20 29h1M34 29h1M47 29h1M49 29h1M61 29h1M75 29h1M77 29h1" />
<path stroke="#9c9a9c" d="M11 1h2M13 2h1M38 2h2M66 2h2M40 3h1M68 3h1M11 4h1M5 7h2M19 7h1M6 8h2M32 8h2M46 8h1M60 8h2M74 8h1M9 9h1M13 9h2M33 9h2M61 9h2M12 10h1M36 10h1M40 10h2M64 10h1M68 10h2M12 11h1M39 11h1M67 11h1M9 12h1M12 12h2M24 12h1M39 12h1M67 12h1M80 12h1M3 13h1M23 13h1M36 13h1M39 13h2M52 13h1M58 13h1M64 13h1M67 13h2M79 13h1M4 14h1M22 14h1M30 14h1M51 14h1M59 14h1M78 14h1M3 15h1M5 15h1M23 15h2M31 15h1M50 15h1M58 15h1M60 15h1M79 15h2M4 16h1M24 16h1M30 16h1M32 16h1M51 16h2M59 16h1M80 16h1M31 17h1M52 17h1M4 19h2M22 19h1M59 19h2M78 19h1M8 20h2M16 20h1M18 20h1M24 20h1M31 20h2M35 20h2M43 20h1M45 20h1M50 20h1M63 20h1M71 20h1M73 20h1M80 20h1M10 21h1M23 21h2M37 21h1M43 21h1M52 21h1M64 21h1M71 21h1M79 21h2M18 22h1M43 22h1M46 22h1M51 22h2M71 22h1M74 22h1M9 23h1M16 23h1M36 23h1M44 23h1M46 23h1M63 23h1M72 23h1M74 23h1M8 24h2M16 24h1M35 24h2M45 24h1M63 24h1M73 24h1M9 25h1M16 25h2M36 25h1M46 25h1M63 25h1M74 25h1M18 27h1M47 27h1M75 27h1" />
<path stroke="#525152" d="M14 1h1M41 2h1M69 2h1M16 3h1M15 4h1M43 4h1M71 4h1M17 5h1M42 5h1M70 5h1M8 6h1M44 6h1M72 6h1M9 7h2M13 7h1M35 7h1M63 7h1M10 8h4M15 8h2M20 8h1M36 8h2M40 8h1M64 8h2M68 8h1M5 9h1M7 9h1M16 9h1M18 9h2M37 9h4M42 9h2M47 9h1M65 9h4M70 9h2M75 9h1M17 10h1M32 10h1M34 10h1M43 10h1M45 10h2M60 10h1M62 10h1M71 10h1M73 10h2M17 11h1M44 11h1M72 11h1M5 12h1M16 12h1M25 12h1M44 12h1M72 12h1M81 12h1M5 13h1M12 13h3M25 13h1M32 13h1M43 13h1M53 13h1M60 13h1M71 13h1M81 13h1M11 14h2M32 14h1M39 14h3M53 14h1M67 14h3M6 15h1M22 15h1M38 15h2M61 15h1M66 15h2M78 15h1M11 16h5M25 16h1M33 16h1M50 16h1M81 16h1M5 17h1M10 17h1M15 17h2M24 17h1M37 17h1M42 17h2M53 17h1M60 17h1M65 17h1M70 17h2M80 17h1M10 18h1M15 18h2M32 18h1M37 18h1M42 18h2M52 18h1M65 18h1M70 18h2M18 19h1M45 19h1M73 19h1M12 21h1M39 21h1M66 21h1M11 23h1M19 23h1M38 23h1M47 23h1M65 23h1M75 23h1M10 24h2M37 24h2M64 24h2M10 26h1M37 26h1M64 26h1M20 27h1M49 27h1M77 27h1M11 28h2M38 28h2M65 28h2M9 29h4M36 29h4M63 29h4" />
<path stroke="#212021" d="M15 1h1M16 2h1M42 2h1M70 2h1M17 3h1M43 3h1M71 3h1M17 4h1M44 4h1M72 4h1M44 5h1M72 5h1M22 6h1M23 7h1M49 7h1M77 7h1M23 8h1M50 8h1M78 8h1M21 9h2M50 9h1M78 9h1M20 10h3M48 10h2M76 10h2M6 11h1M18 11h3M23 11h1M47 11h3M75 11h2M79 11h1M6 12h1M18 12h1M21 12h1M23 12h1M33 12h1M45 12h2M51 12h1M61 12h1M73 12h2M79 12h1M2 13h1M26 13h1M33 13h1M45 13h1M51 13h1M57 13h1M73 13h1M82 13h1M2 14h1M7 14h1M9 14h1M16 14h1M26 14h1M29 14h1M54 14h1M57 14h1M62 14h1M82 14h1M2 15h1M10 15h1M15 15h2M26 15h1M29 15h1M34 15h1M36 15h1M43 15h1M54 15h1M57 15h1M64 15h1M71 15h1M82 15h1M17 16h1M29 16h1M37 16h1M42 16h2M54 16h1M65 16h1M70 16h2M9 17h1M11 17h2M23 17h1M25 17h1M36 17h1M38 17h2M64 17h1M66 17h2M79 17h1M81 17h1M5 18h2M24 18h3M51 18h1M53 18h1M60 18h2M80 18h3M3 19h1M7 19h1M9 19h1M11 19h1M14 19h1M26 19h1M32 19h2M36 19h1M38 19h1M41 19h1M52 19h3M58 19h1M62 19h1M64 19h1M66 19h1M69 19h1M82 19h1M7 20h1M26 20h1M30 20h1M34 20h1M54 20h1M62 20h1M82 20h1M7 21h1M22 21h1M26 21h1M34 21h1M54 21h1M78 21h1M82 21h1M3 22h4M12 22h1M23 22h3M34 22h1M39 22h1M50 22h1M54 22h1M58 22h3M66 22h1M79 22h3M30 23h4M51 23h3M12 25h1M39 25h1M66 25h1M20 26h1M49 26h1M77 26h1M12 27h1M39 27h1M66 27h1" />
<path stroke="#8c8e8c" d="M9 2h1M13 3h1M36 3h1M64 3h1M12 4h1M40 4h1M68 4h1M39 5h1M20 6h1M20 7h2M47 7h1M75 7h1M18 8h1M47 8h2M75 8h2M15 9h1M45 9h1M73 9h1M42 10h1M70 10h1M14 12h1M41 13h1M69 13h1" />
<path stroke="#ffffff" d="M10 2h2M10 3h2M37 3h2M65 3h2M37 4h2M65 4h2M11 9h1M11 10h1M13 10h1M38 10h1M66 10h1M38 11h1M40 11h1M66 11h1M68 11h1M8 21h2M17 21h1M35 21h2M45 21h1M63 21h1M73 21h1M8 22h1M35 22h1M6 27h1M33 27h1M60 27h1M5 28h1M17 28h1M32 28h1M46 28h1M59 28h1M74 28h1M5 29h1M16 29h2M32 29h1M45 29h2M59 29h1M73 29h2" />
<path stroke="#bdbabd" d="M12 2h1M9 3h1M12 3h1M39 3h1M67 3h1M36 4h1M39 4h1M64 4h1M67 4h1M64 5h2M65 6h1M10 9h1M12 9h1M10 10h1M15 10h1M37 10h1M39 10h1M65 10h1M67 10h1M9 11h2M13 11h3M37 11h1M42 11h1M65 11h1M70 11h1M11 12h1M36 12h2M40 12h3M64 12h2M68 12h3M38 13h1M66 13h1M18 21h1M46 21h1M62 21h1M74 21h1M9 22h1M16 22h1M36 22h1M44 22h1M62 22h2M72 22h1M8 23h1M17 23h1M35 23h1M45 23h1M62 23h1M73 23h1M17 24h1M46 24h1M62 24h1M74 24h1M7 27h1M17 27h1M34 27h1M46 27h1M61 27h1M74 27h1M6 28h2M16 28h1M33 28h2M45 28h1M60 28h2M73 28h1M6 29h1M15 29h1M33 29h1M44 29h1M60 29h1M72 29h1" />
<path stroke="#636163" d="M14 2h1M8 3h1M41 3h1M69 3h1M8 4h1M35 4h1M63 4h1M8 5h1M14 5h2M35 5h1M63 5h1M9 6h1M13 6h2M21 6h1M35 6h1M41 6h2M63 6h1M69 6h2M11 7h2M22 7h1M36 7h1M40 7h2M48 7h1M64 7h1M68 7h2M76 7h1M4 8h1M19 8h1M38 8h2M49 8h1M66 8h2M77 8h1M6 9h1M31 9h1M46 9h1M59 9h1M74 9h1M16 10h1M33 10h1M61 10h1M16 11h1M43 11h1M71 11h1M17 12h1M43 12h1M71 12h1M10 13h1M16 13h1M44 13h1M72 13h1M25 14h1M37 14h1M43 14h1M65 14h1M71 14h1M81 14h1M25 15h1M53 15h1M81 15h1M3 16h1M5 16h1M23 16h1M53 16h1M58 16h1M60 16h1M79 16h1M4 17h1M30 17h1M32 17h1M51 17h1M59 17h1M4 18h1M7 18h1M31 18h1M59 18h1M62 18h1M31 19h1M34 19h1M6 20h1M10 20h1M37 20h1M61 20h1M64 20h1M3 21h1M11 21h1M15 21h1M19 21h1M25 21h1M33 21h1M38 21h1M47 21h1M58 21h1M65 21h1M75 21h1M81 21h1M10 22h1M15 22h1M19 22h1M30 22h1M37 22h1M47 22h1M53 22h1M64 22h1M75 22h1M10 23h1M15 23h1M18 23h1M37 23h1M43 23h1M64 23h1M71 23h1M18 24h1M44 24h1M47 24h1M72 24h1M75 24h1M10 25h1M37 25h1M45 25h1M64 25h1M73 25h1M11 26h1M38 26h1M65 26h1M19 27h1M48 27h1M76 27h1M9 28h2M15 28h1M19 28h1M21 28h1M36 28h2M44 28h1M48 28h1M50 28h1M63 28h2M72 28h1M76 28h1M78 28h1M8 29h1M19 29h1M21 29h1M35 29h1M48 29h1M50 29h1M62 29h1M76 29h1M78 29h1" />
<path stroke="#393839" d="M15 2h1M15 3h1M42 3h1M70 3h1M42 4h1M70 4h1M6 5h2M18 5h3M5 6h1M17 6h1M33 6h2M45 6h3M61 6h2M73 6h3M4 7h1M8 7h1M16 7h2M32 7h1M44 7h1M60 7h1M72 7h1M8 8h2M14 8h1M17 8h1M21 8h2M31 8h1M35 8h1M43 8h2M59 8h1M63 8h1M71 8h2M4 9h1M8 9h1M17 9h1M20 9h1M35 9h2M41 9h1M44 9h1M48 9h2M63 9h2M69 9h1M72 9h1M76 9h2M7 10h2M18 10h2M31 10h1M35 10h1M44 10h1M47 10h1M59 10h1M63 10h1M72 10h1M75 10h1M5 11h1M8 11h1M21 11h2M24 11h1M34 11h2M45 11h2M62 11h2M73 11h2M77 11h2M80 11h1M8 12h1M22 12h1M32 12h1M35 12h1M49 12h2M52 12h1M60 12h1M63 12h1M78 12h1M9 13h1M15 13h1M17 13h1M22 13h1M35 13h1M50 13h1M63 13h1M78 13h1M5 14h2M10 14h1M13 14h3M36 14h1M42 14h1M44 14h1M50 14h1M60 14h2M64 14h1M70 14h1M72 14h1M11 15h1M14 15h1M32 15h2M37 15h1M40 15h3M65 15h1M68 15h3M6 16h1M10 16h1M16 16h1M22 16h1M38 16h1M41 16h1M61 16h1M66 16h1M69 16h1M78 16h1M6 17h2M13 17h2M17 17h1M33 17h1M40 17h2M44 17h1M50 17h1M61 17h2M68 17h2M72 17h1M9 18h1M11 18h1M14 18h1M17 18h2M33 18h2M36 18h1M38 18h1M41 18h1M44 18h2M64 18h1M66 18h1M69 18h1M72 18h2M10 19h1M15 19h3M21 19h1M37 19h1M42 19h3M65 19h1M70 19h3M77 19h1M5 20h1M14 20h2M19 20h1M21 20h3M41 20h2M46 20h1M49 20h1M60 20h1M69 20h2M74 20h1M77 20h3M6 21h1M32 21h1M49 21h3M11 22h1M33 22h1M38 22h1M65 22h1M15 24h1M19 24h1M48 24h1M61 24h1M76 24h1M11 25h1M19 25h1M38 25h1M44 25h1M48 25h1M65 25h1M72 25h1M76 25h1M7 26h3M12 26h1M16 26h4M34 26h3M39 26h1M45 26h4M61 26h3M66 26h1M73 26h4M9 27h3M15 27h1M36 27h3M44 27h1M63 27h3M72 27h1" />
<path stroke="#ad0000" d="M9 4h1M10 5h1M37 5h1M66 5h1M38 6h1M67 6h1" />
<path stroke="#ff0000" d="M10 4h1M9 5h1M38 5h1M67 5h1M37 6h1M66 6h1" />
<path stroke="#151311" d="M21 5h1M48 6h1M76 6h1M5 10h2M23 10h1M50 10h1M78 10h1M4 11h1M7 11h1M25 11h1M32 11h2M50 11h2M60 11h2M81 11h1M3 12h2M7 12h1M20 12h1M26 12h1M31 12h1M34 12h1M47 12h2M53 12h1M58 12h2M62 12h1M75 12h3M82 12h1M4 13h1M6 13h2M18 13h1M21 13h1M30 13h2M34 13h1M48 13h2M54 13h1M59 13h1M61 13h2M76 13h2M17 14h1M21 14h1M31 14h1M33 14h2M45 14h1M49 14h1M73 14h1M77 14h1M7 15h1M9 15h1M17 15h1M21 15h1M44 15h1M49 15h1M62 15h1M72 15h1M77 15h1M2 16h1M7 16h1M9 16h1M18 16h1M26 16h1M34 16h1M36 16h1M44 16h1M49 16h1M57 16h1M62 16h1M64 16h1M72 16h1M82 16h1M3 17h1M8 17h1M18 17h1M22 17h1M26 17h1M29 17h1M34 17h2M45 17h1M54 17h1M57 17h2M63 17h1M73 17h1M78 17h1M82 17h1M3 18h1M8 18h1M12 18h2M19 18h1M22 18h2M30 18h1M35 18h1M39 18h2M46 18h1M50 18h1M54 18h1M58 18h1M63 18h1M67 18h2M74 18h1M78 18h2M2 19h1M8 19h1M12 19h2M19 19h2M30 19h1M35 19h1M39 19h2M46 19h2M50 19h2M57 19h1M63 19h1M67 19h2M74 19h2M2 20h1M11 20h2M20 20h1M29 20h1M38 20h2M47 20h1M57 20h1M65 20h2M75 20h1M2 21h1M13 21h2M20 21h1M29 21h1M40 21h1M42 21h1M48 21h1M57 21h1M61 21h1M67 21h1M70 21h1M76 21h1M7 22h1M14 22h1M20 22h1M29 22h1M42 22h1M48 22h1M61 22h1M70 22h1M76 22h1M7 23h1M12 23h1M14 23h1M20 23h1M34 23h1M39 23h1M42 23h1M48 23h1M61 23h1M66 23h1M70 23h1M76 23h1M7 24h1M12 24h1M14 24h1M20 24h1M34 24h1M39 24h1M43 24h1M49 24h1M66 24h1M71 24h1M77 24h1M6 25h1M14 25h2M20 25h1M33 25h1M43 25h1M49 25h1M60 25h1M71 25h1M77 25h1M6 26h1M15 26h1M33 26h1M44 26h1M60 26h1M72 26h1M5 27h1M32 27h1M59 27h1M4 28h1M31 28h1M58 28h1M4 29h1M31 29h1M58 29h1" />
<path stroke="#e8e8e8" d="M6 6h2M18 6h2M7 7h1M18 7h1M33 7h2M45 7h2M61 7h2M73 7h2M34 8h1M45 8h1M62 8h1M73 8h1M9 10h1M14 10h1M11 11h1M36 11h1M41 11h1M64 11h1M69 11h1M38 12h1M66 12h1M24 13h1M80 13h1M3 14h1M23 14h2M52 14h1M58 14h1M79 14h2M4 15h1M30 15h1M51 15h2M59 15h1M31 16h1M23 19h1M79 19h1M4 20h1M17 20h1M44 20h1M51 20h1M59 20h1M72 20h1M5 21h1M16 21h1M31 21h1M44 21h1M60 21h1M72 21h1M17 22h1M32 22h1M45 22h1M73 22h1" />
<path stroke="#a0a0a0" d="M10 12h1M37 13h1M65 13h1" />
</svg>